<svg xmlns='http://www.w3.org/2000/svg' viewBox='0 0 1000 1000'>
  <defs>
    <!-- Degradado principal -->
    <radialGradient id='bgGrad' cx='500' cy='500' r='70%' gradientUnits='userSpaceOnUse'>
      <stop offset='0' stop-color='#fffefb'/>
      <stop offset='50%' stop-color='#f5f1dc'/>
      <stop offset='100%' stop-color='#ebe4c7'/>
    </radialGradient>
    
    <!-- Brillo -->
    <radialGradient id='brightGrad' cx='500' cy='500' r='55%' gradientUnits='userSpaceOnUse'>
      <stop offset='0' stop-color='#ffffff' stop-opacity='0.95'/>
      <stop offset='40%' stop-color='#f8f5e6' stop-opacity='0.35'/>
      <stop offset='100%' stop-color='#ebe4c7' stop-opacity='0'/>
    </radialGradient>

    <!-- Sombra -->
    <radialGradient id='shadowGrad' cx='500' cy='500' r='85%' gradientUnits='userSpaceOnUse'>
      <stop offset='0' stop-color='#ffffff' stop-opacity='0'/>
      <stop offset='70%' stop-color='#8a7a4a' stop-opacity='0.06'/>
      <stop offset='100%' stop-color='#6b5e38' stop-opacity='0.12'/>
    </radialGradient>

    <!-- Sombra del contenido -->
    <filter id='dropShadow' x='-20%' y='-20%' width='140%' height='140%'>
      <feDropShadow dx='0' dy='4' stdDeviation='8' flood-color='#6b5e38' flood-opacity='0.2'/>
    </filter>
  </defs>

  <!-- Fondo -->
  <rect fill='url(#bgGrad)' width='1000' height='1000'/>

  <!-- Brillo -->
  <rect fill-opacity='0.5' fill='url(#brightGrad)' width='1000' height='1000'/>

  <!-- Sombra -->
  <rect fill='url(#shadowGrad)' width='1000' height='1000'/>

  <!-- Logo -->
  <g transform='translate(500, 500) scale(3.5) translate(-141.73, -141.73)' filter='url(#dropShadow)'>
    <style>
      .cls-1 { fill: #f39200; }
      .cls-2 { fill: #124734; }
    </style>
    
    <path class="cls-2" d="M107.86,100.13c-20.75-7.28-46.28-20.9-56.39-41.33-4.41-9.05-5.96-19.85-2.36-29.53,5.78-15.31,22.92-23.4,37.45-14.62,8.32,4.75,13.62,12.76,18.48,20.53,9.43,15.08,17.87,31.62,19.77,49.51-1.55-8.78-4.71-17.16-8.74-25.02-4.03-7.87-8.91-15.27-14.1-22.42-4.98-6.85-10.38-14.02-18.01-17.7-11.37-5.92-23.42.79-26.96,12.4-7.04,29.75,31.61,47.69,55.14,54,9.69,3.01,5.52,17.02-4.28,14.17h0Z"/>
    
    <path class="cls-2" d="M154.71,85.95c18.25-5.05,41.73-15.2,51.66-31.88,3.82-6.58,5.65-14.78,3.49-22.12-2.04-7.04-8.33-13.41-15.74-14.46-12.89-1.49-22.4,10.12-29.24,19.76-10.36,14.28-19.7,29.82-22.84,47.44,1.91-17.89,10.34-34.43,19.77-49.51,4.86-7.77,10.16-15.78,18.48-20.53,20.74-12.04,42.08,7.84,39.26,29.74-2.97,29.01-35.77,46.99-60.57,55.74-9.75,2.83-13.97-11.15-4.26-14.18h0Z"/>
    
    <path class="cls-2" d="M127.8,69.4c-.33-11.6-8.5-21.22-8.5-33-.02-16.28,16.17-23.99,28.22-12.52,7.8,8.02,6.25,20.53,1.08,29.07-2.43,4.13-5.41,7.66-8.7,10.91-.27.28-.76-.03-.63-.39,1.49-4.38,3.31-8.52,4.55-12.64,1.84-5.94,2.51-11.76.68-17.43-1.78-6.63-10.04-11.95-16.01-6.98-4.63,3.9-5.6,10.64-4.63,16.44,1.2,8.68,5.64,17.52,4.68,26.58-.03.44-.74.43-.74-.03h0Z"/>
    
    <path class="cls-1" d="M27.69,144.19c9.87-11.13,19.96-22.01,29.97-32.99l2.62,2.89 27.22,30.07c2.76,3.05,2.52,7.76-.52,10.51-3.41,3.16-9.07,2.29-11.4-1.72l-20.51-35.02 5.19.03c-6.95,11.56-13.83,23.22-20.56,34.89-2.05,3.56-6.6,4.79-10.16,2.74-4.07-2.28-4.97-7.96-1.85-11.4Z"/>
    
    <path class="cls-1" d="M58.56,116.58c6.43,29.07,8.39,59.05,9.3,88.7.56,9.68-1.18,41.7,4.94,47.11,2.46,1.64,7.16,2.15,10.87,2.53,2.32.3,6.04.35,8.44.52,29.54,1.57,59.08,3.97,88.36,8.53,5.89.89,11.78,1.89,17.67,3.09.43.03.83.44.71.89-.07.35-.38.59-.72.59-23.62.02-83.3.07-106.09.09-5.88-.01-11.85.13-17.86-.87-6.09-.86-12.38-4.12-15.39-9.75-3.07-5.4-4.05-11.53-4.65-17.56-.55-5.96-.6-11.91-.5-17.83.88-34.24,1.84-71.99,1.92-106.04.09-1.82,2.72-2.07,2.98,0Z"/>
    
    <path class="cls-1" d="M248.09,237.83c-10.16,11.57-20.59,22.83-30.87,34.27l-2.63-2.93-28.13-31.31c-2.75-3.06-2.49-7.76.56-10.51,3.43-3.16,9.11-2.25,11.41,1.79l21.38,36.18-5.2-.03c7.26-11.97,14.45-24.05,21.47-36.13,2.06-3.55,6.61-4.76,10.17-2.7,4.04,2.28,4.94,7.92,1.84,11.36Z"/>
    
    <path class="cls-1" d="M216.33,266.66c-6.47-30.36-8.38-61.58-9.26-92.5-.12-5.31-.17-13.19-.2-18.34-.16-7.97-.27-16.52-2.02-24.11-.89-3.23-1.21-4.91-3.29-6.6-5.59-2.9-14.37-2.62-20.97-3.11-24.61-1.23-49.24-3.08-73.72-6.03-12.33-1.5-24.62-3.22-36.86-5.56-.43-.03-.82-.43-.72-.89.07-.35.38-.59.72-.59h110.64c9.19.16,19.2-.73,27.8,3.62,13.89,7.45,12.73,29.93,12.86,43.57-.92,35.71-1.91,75.08-2,110.6-.07,1.79-2.7,2.11-2.98,0Z"/>
  </g>
</svg>